<svg width="1024" height="1024" viewBox="0 0 1024 1024" xmlns="http://www.w3.org/2000/svg">
  <title>CueUp app icon</title>
  <defs>
    <linearGradient id="bg" x1="0" y1="0" x2="0" y2="1">
      <stop offset="0%" stop-color="#15171d"></stop>
      <stop offset="100%" stop-color="#06070a"></stop>
    </linearGradient>
    <radialGradient id="glow" cx="0.5" cy="0.5" r="0.5">
      <stop offset="0%" stop-color="#d4a554" stop-opacity="0.42"></stop>
      <stop offset="55%" stop-color="#d4a554" stop-opacity="0.08"></stop>
      <stop offset="100%" stop-color="#d4a554" stop-opacity="0"></stop>
    </radialGradient>
    <linearGradient id="dm" x1="0" y1="0" x2="0" y2="1">
      <stop offset="0%" stop-color="#e7b65d"></stop>
      <stop offset="100%" stop-color="#b8893f"></stop>
    </linearGradient>
    <linearGradient id="dmHi" x1="0" y1="0" x2="0" y2="1">
      <stop offset="0%" stop-color="#f0c878" stop-opacity="0.55"></stop>
      <stop offset="100%" stop-color="#f0c878" stop-opacity="0"></stop>
    </linearGradient>
  </defs>
  <rect x="0" y="0" width="1024" height="1024" rx="224" ry="224" fill="url(#bg)"></rect>
  <circle cx="512" cy="512" r="360" fill="url(#glow)"></circle>
  <g stroke="#d4a554" stroke-width="40" fill="none" stroke-linecap="square">
    <path d="M 240 360 L 240 240 L 360 240"></path>
    <path d="M 784 360 L 784 240 L 664 240"></path>
    <path d="M 240 664 L 240 784 L 360 784"></path>
    <path d="M 784 664 L 784 784 L 664 784"></path>
  </g>
  <g transform="translate(512 512) rotate(45)">
    <rect x="-180" y="-180" width="360" height="360" fill="url(#dm)"></rect>
    <rect x="-180" y="-180" width="360" height="180" fill="url(#dmHi)"></rect>
  </g>
</svg>